<svg width="20" height="20" viewBox="0 0 20 20" fill="none" xmlns="http://www.w3.org/2000/svg">
<path fill-rule="evenodd" clip-rule="evenodd" d="M9.99984 1.66675C5.39984 1.66675 1.6665 5.40008 1.6665 10.0001C1.6665 14.6001 5.39984 18.3334 9.99984 18.3334C14.5998 18.3334 18.3332 14.6001 18.3332 10.0001C18.3332 5.40008 14.5998 1.66675 9.99984 1.66675ZM9.99984 12.5001C8.61859 12.5001 7.49984 11.3813 7.49984 10.0001C7.49984 8.61883 8.61859 7.50008 9.99984 7.50008C11.3811 7.50008 12.4998 8.61883 12.4998 10.0001C12.4998 11.3813 11.3811 12.5001 9.99984 12.5001Z" fill="#5D8AA3"/>
<path fill-rule="evenodd" clip-rule="evenodd" d="M10 12.5C8.61875 12.5 7.5 11.3812 7.5 10C7.5 8.61875 8.61875 7.5 10 7.5C11.3812 7.5 12.5 8.61875 12.5 10C12.5 11.3812 11.3812 12.5 10 12.5Z" fill="white"/>
</svg>
